<svg xmlns="http://www.w3.org/2000/svg" width="160" height="70" viewBox="0 0 160 70">
    <g fill="#A6A6A6" fill-rule="evenodd">
        <path d="M116.587 61.602h-1.486V57.25h1.924c.548 0 1.252 0 1.69.374.485.422.657 1.104.657 1.738 0 .649-.203 1.396-.72 1.802-.547.438-1.392.438-2.065.438zm4.209 5.131l-.704-2.597c-.313-1.186-.47-1.624-1.705-1.917 1.658-.146 2.362-1.461 2.362-3.068 0-.942-.376-1.95-1.142-2.485-.767-.52-1.893-.487-2.77-.487h-4.692v1.071h1.595v9.483h-1.595v1.072h4.474v-1.072h-1.518V62.69h1.534c.39 0 .829 0 1.188.18.564.275.783.925.939 1.51l.938 3.425h2.3v-1.072h-1.204zm-21.779 1.072v-1.072h1.596V57.25h-1.596v-1.07h8.948v3.474h-1.22V57.25h-4.771v4.109h2.315v-1.77h1.126v4.579h-1.126V62.43h-2.315v4.302h4.771v-2.549h1.22v3.621h-8.948zm-5.297-6.398c-.532.553-1.22.553-1.909.553h-1.689v-4.71h1.533c.673 0 1.33 0 1.909.455.61.439.75 1.202.75 1.933 0 .633-.14 1.315-.594 1.77zm-.156-5.098c-.532-.13-.923-.13-1.47-.13h-4.929v1.071h1.596v9.483h-1.596v1.072H92v-1.072h-1.877v-3.702h1.815c.954 0 1.893.05 2.66-.665.829-.764 1.11-1.624 1.11-2.744 0-1.527-.626-2.924-2.143-3.313zM74.038 67.805v-1.072h1.596V57.25h-1.596v-1.07h8.948v3.474h-1.22V57.25h-4.771v4.109h2.315v-1.77h1.126v4.579H79.31V62.43h-2.315v4.302h4.771v-2.549h1.22v3.621h-8.948zm-13.127 0v-1.072h1.595V57.25h-1.595v-1.07h8.948v3.474h-1.22V57.25h-4.772v4.109h2.316v-1.77h1.126v4.579h-1.126V62.43h-2.316v4.302h4.772v-2.549h1.22v3.621H60.91zm-12.675 0v-1.072h1.612V57.25h-1.612v-1.07h4.85v1.07h-1.877v9.386h4.255v-2.63h1.267v3.8h-8.495zm-5.385-7.826c-.047-1.722-.595-2.923-2.41-2.923-1.11 0-2.002.73-2.002 1.932 0 .504.22.99.564 1.315.219.211.954.487 1.235.601l1.424.568c.767.293 1.346.488 1.924 1.104.516.569.72 1.332.72 2.095 0 .536-.031.975-.392 1.657C43.383 67.35 42.35 68 40.88 68c-1.158 0-2.253-.487-2.675-1.672v1.477h-1.19v-3.93h1.19c.046 1.673.798 3.021 2.55 3.021.625 0 1.142-.097 1.595-.585.376-.422.532-.909.532-1.494 0-1.201-.657-1.559-1.612-1.964l-1.798-.731C38.048 61.537 37 60.952 37 59.167c0-.812.14-1.38.532-1.884.767-.974 1.595-1.283 2.8-1.283 1.017 0 1.987.309 2.519 1.283v-1.104h1.204v3.8h-1.204zM150.26 46.87l1.884-5.425 1.854 5.424h-3.738zm6.619 3.863L153 40.18h-1.589l-3.94 10.554h-1.152v1.072h4.08v-1.072h-1.526l.95-2.793h4.61l.965 2.793h-1.542v1.072H158v-1.072h-1.121zm-18.81-5.13h-1.48V41.25h1.916c.545 0 1.246 0 1.682.374.483.422.654 1.104.654 1.737 0 .65-.202 1.397-.716 1.803-.546.438-1.386.438-2.056.438zm4.19 5.13l-.702-2.598c-.311-1.185-.466-1.623-1.697-1.916 1.65-.146 2.352-1.461 2.352-3.068 0-.942-.374-1.95-1.137-2.485-.763-.52-1.885-.487-2.757-.487h-4.672v1.071h1.589v9.483h-1.589v1.072h4.454v-1.072h-1.51V46.69h1.526c.39 0 .825 0 1.183.18.561.275.78.925.935 1.509l.934 3.426h2.29v-1.072h-1.2zm-21.681 1.072v-1.072h1.588V41.25h-1.588v-1.07h8.908v3.474h-1.215V41.25h-4.75v4.109h2.305v-1.77h1.121v4.58h-1.12V46.43h-2.306v4.302h4.75v-2.549h1.215v3.621h-8.908zm-8.213-11.626h4.485v1.071h-1.573v9.483h1.573v1.072h-4.485v-1.072h1.558V41.25h-1.558v-1.07zm-8.384 11.626h-1.542L98.763 41.25h-.903v-1.07h4.018v1.07h-1.635l3.021 9.11 3.084-9.11h-1.62v-1.07h3.91v1.07h-.904l-3.753 10.555zM89.647 40.18h4.485v1.071H92.56v9.483h1.573v1.072h-4.485v-1.072h1.558V41.25h-1.558v-1.07zm-9.116 5.423h-1.48V41.25h1.916c.546 0 1.246 0 1.683.374.482.422.654 1.104.654 1.737 0 .65-.203 1.397-.717 1.803-.545.438-1.386.438-2.056.438zm4.19 5.131l-.701-2.598c-.312-1.185-.467-1.623-1.698-1.916 1.651-.146 2.352-1.461 2.352-3.068 0-.942-.374-1.95-1.137-2.485-.763-.52-1.884-.487-2.756-.487h-4.672v1.071h1.588v9.483H76.11v1.072h4.454v-1.072h-1.511V46.69h1.526c.39 0 .826 0 1.184.18.56.275.779.925.934 1.509l.934 3.426h2.29v-1.072h-1.2zM54.599 40.18h9.032v3.718h-1.246v-2.484H59.8v9.32h1.729v1.072h-4.797v-1.072h1.713v-9.32h-2.6v2.484h-1.246V40.18zM39.288 51.805v-1.072h1.557V41.25h-1.557v-1.07h4.47v1.07H42.2v4.109h5.326V41.25h-1.573v-1.07h4.486v1.07H48.88v9.483h1.558v1.072h-4.486v-1.072h1.573v-4.221H42.2v4.221h1.557v1.072h-4.47zm-6.052-7.502c-.015-1.948-1.26-3.182-3.099-3.182-2.647 0-3.457 2.647-3.457 4.969 0 2.289.872 4.773 3.457 4.773 1.993 0 3.24-1.77 3.193-3.75h-1.713v-1.056h4.376v1.056H34.59v4.692h-1.277V50.02C32.831 51.432 31.26 52 29.934 52c-1.448 0-2.802-.633-3.784-1.981-.638-.877-.965-2.679-.965-3.93 0-1.461.25-3.182 1.246-4.416.903-1.12 2.18-1.673 3.722-1.673 1.23 0 2.476.503 3.083 1.673v-1.494h1.23v4.124h-1.23zM16.972 40.18h4.485v1.071h-1.573v9.483h1.573v1.072h-4.485v-1.072h1.557V41.25h-1.557v-1.07zM2 51.805v-1.072h1.573V41.25H2v-1.07h3.582l4.92 10.115V41.25H8.947v-1.07h4.298v1.07h-1.526v10.555H9.834L4.756 41.397v9.336h1.605v1.072H2zM54 34h52v-1H54zM101.627 21.257l.028-.001 1.18 3.744h3.07l-1.51-4.791a4.727 4.727 0 0 0 1.605-3.58c0-2.551-1.961-4.627-4.373-4.627V12H95v13h2.913v-3.743h3.714zm-3.714-6.175h3.714v.002c.806 0 1.461.694 1.461 1.545 0 .853-.655 1.546-1.46 1.546h-3.715v-3.093zM90.778 4.667l-4.834 14L79.5 0l-6.445 18.667-4.833-14H65L73.055 28 79.5 9.333 85.944 28 94 4.667h-3.222M60.627 18.757h2.416v1.161a3.56 3.56 0 0 1-2.416.959c-2.024 0-3.67-1.74-3.67-3.877 0-2.137 1.646-3.876 3.67-3.876 1.15 0 2.191.554 2.871 1.459l1.027-3.254A6.386 6.386 0 0 0 60.627 10C56.973 10 54 13.14 54 17s2.973 7 6.627 7c1.925 0 3.752-.882 5.012-2.42l.361-.44v-5.507h-5.373v3.124z"/>
    </g>
</svg>
