<svg xmlns="http://www.w3.org/2000/svg" width="30" height="30" viewBox="0 0 30 30">
    <g fill="#009688" fill-rule="nonzero" transform="translate(4)">
        <ellipse cx="11.291" cy="2.4" rx="2.971" ry="2.4"/>
        <path d="M21.394 16.31v-3.043c-2.353.03-4.722-1.14-6.22-2.783l-1.97-2.176a2.955 2.955 0 0 0-.933-.684c-.015 0-.015-.015-.03-.015h-.016a3.062 3.062 0 0 0-1.818-.396C8.802 7.35 7.64 8.765 7.64 10.362v8.99c0 1.673 1.375 3.042 3.056 3.042h7.641V30h3.056v-8.366c0-1.674-1.375-3.043-3.056-3.043h-4.585v-5.248c1.972 1.628 4.967 2.951 7.641 2.967zm-9.428 7.605a4.589 4.589 0 0 1-4.325 3.043 4.568 4.568 0 0 1-4.585-4.564c0-1.992 1.284-3.666 3.057-4.305v-3.148C2.628 15.64 0 18.713 0 22.394 0 26.593 3.423 30 7.64 30c3.699 0 6.786-2.616 7.489-6.085h-3.163z"/>
    </g>
</svg>
