<?xml version="1.0" encoding="UTF-8"?>
<svg width="19px" height="18px" viewBox="0 0 19 18" version="1.1" xmlns="http://www.w3.org/2000/svg" xmlns:xlink="http://www.w3.org/1999/xlink">
    <!-- Generator: Sketch 45 (43475) - http://www.bohemiancoding.com/sketch -->
    <title>Car Copy</title>
    <desc>Created with Sketch.</desc>
    <defs>
        <polygon id="path-1" points="0 16.7333267 18 16.7333267 18 0.000226666667 0 0.000226666667"></polygon>
    </defs>
    <g id="Page-1" stroke="none" stroke-width="1" fill="none" fill-rule="evenodd">
        <g id="Desktop-Mixing-deck-page" transform="translate(-988.000000, -416.000000)">
            <g id="Car" transform="translate(988.488825, 416.755365)">
                <g id="Page-1">
                    <mask id="mask-2" fill="white">
                        <use xlink:href="#path-1"></use>
                    </mask>
                    <g id="Clip-2"></g>
                    <path d="M14.6041875,7.51932667 C15.3765,7.51932667 16.0025625,8.15002667 16.0025625,8.92806 C16.0025625,9.70609333 15.3765,10.3367933 14.6041875,10.3367933 C13.831875,10.3367933 13.2058125,9.70609333 13.2058125,8.92806 C13.2058125,8.15002667 13.831875,7.51932667 14.6041875,7.51932667 L14.6041875,7.51932667 Z M5.722875,12.9117267 L12.166875,12.9117267 L12.166875,11.7863267 L5.722875,11.7863267 L5.722875,12.9117267 Z M3.285,10.3367933 C2.5126875,10.3367933 1.886625,9.70609333 1.886625,8.92806 C1.886625,8.15002667 2.5126875,7.51932667 3.285,7.51932667 C4.0573125,7.51932667 4.683375,8.15002667 4.683375,8.92806 C4.683375,9.70609333 4.0573125,10.3367933 3.285,10.3367933 L3.285,10.3367933 Z M3.940875,2.17112667 C4.0455,1.96656 4.2451875,1.84982667 4.4634375,1.78182667 C5.571,1.43559333 12.0515625,1.39082667 13.485375,1.78182667 C13.65075,1.82716 13.7930625,2.02776 13.888125,2.17112667 C14.864625,3.64502667 15.20325,5.65782667 15.20325,5.65782667 C8.922375,4.67749333 2.719125,5.65782667 2.719125,5.65782667 C3.124125,3.93686 3.666375,2.70946 3.940875,2.17112667 L3.940875,2.17112667 Z M18,11.43216 L17.9780625,8.48096 C17.9780625,7.60432667 17.296875,6.54806 16.4739375,6.13666 C16.504875,6.14119333 16.5380625,6.14572667 16.5684375,6.15026 C16.5684375,6.15026 16.2129375,3.77536 15.2055,1.76312667 C14.967,1.28599333 14.6064375,0.775426667 14.02875,0.63206 C11.31975,-0.0400066667 7.9239375,-0.36584 4.0156875,0.63206 C3.4048125,0.787893333 2.8783125,1.17606 2.63925,1.76312667 C2.2815,2.64316 1.7611875,4.12216 1.3539375,6.10266 C1.3539375,6.10266 1.3989375,6.09869333 1.479375,6.09132667 C0.669375,6.45399333 0.0225,7.61849333 0.0225,8.48096 L0,11.43216 C0,12.1875267 0.172125,13.1094933 1.150875,13.6325267 L1.150875,15.6696933 C1.150875,16.2573267 1.6239375,16.7333267 2.2066875,16.7333267 L3.288375,16.7333267 C3.8716875,16.7333267 4.34475,16.2573267 4.34475,15.6696933 L4.34475,14.1425267 C6.2904375,14.36296 9.401625,14.5323933 13.5185625,14.1935267 L13.5185625,15.6696933 C13.5185625,16.2573267 13.9910625,16.7333267 14.574375,16.7333267 L15.6560625,16.7333267 C16.239375,16.7333267 16.711875,16.2573267 16.711875,15.6696933 L16.711875,13.6648267 C17.8430625,13.11856 18,12.2254933 18,11.43216 L18,11.43216 Z" id="Fill-1" fill="#535761" mask="url(#mask-2)"></path>
                </g>
            </g>
        </g>
    </g>
</svg>