<svg xmlns="http://www.w3.org/2000/svg" width="30" height="30" viewBox="0 0 30 30">
    <path fill="#009688" fill-rule="nonzero" d="M11.1 14.675a1.626 1.626 0 1 0 .001 3.251 1.626 1.626 0 0 0-.001-3.251zm7.8 0a1.626 1.626 0 1 0 .001 3.251 1.626 1.626 0 0 0-.001-3.251zM15 2C7.824 2 2 7.824 2 15s5.824 13 13 13 13-5.824 13-13S22.176 2 15 2zm0 23.4C9.267 25.4 4.6 20.733 4.6 15c0-.377.026-.754.065-1.118a13.08 13.08 0 0 0 6.773-6.981 12.966 12.966 0 0 0 13.533 5.161c.273.923.429 1.911.429 2.938 0 5.733-4.667 10.4-10.4 10.4z"/>
</svg>
