<svg xmlns="http://www.w3.org/2000/svg" width="30" height="30" viewBox="0 0 30 30">
    <path fill="#009688" fill-rule="nonzero" d="M6.355 6.731a2.617 2.617 0 0 1-.637-3.627 2.615 2.615 0 0 1 3.627-.637 2.617 2.617 0 0 1 .637 3.627 2.617 2.617 0 0 1-3.627.637zM20.2 24.1h-9.191a3.888 3.888 0 0 1-3.848-3.302L4.6 8.5H2l2.587 12.688a6.513 6.513 0 0 0 6.435 5.512H20.2v-2.6zm.299-5.2h-6.344l-1.339-5.33c2.054 1.157 4.264 2.002 6.695 1.586v-2.769c-2.119.403-4.472-.35-6.097-1.625l-2.132-1.65a2.94 2.94 0 0 0-.988-.495 2.872 2.872 0 0 0-1.287-.078h-.026a2.948 2.948 0 0 0-2.392 3.393l1.755 7.696a3.91 3.91 0 0 0 3.835 3.172h8.905l4.966 3.9L28 24.75l-7.501-5.85z"/>
</svg>
