<!-- Generated by IcoMoon.io -->
<svg version="1.1" xmlns="http://www.w3.org/2000/svg" width="50" height="32" viewBox="0 0 50 32">
<title>overtaking</title>
<path d="M28.7 4.778c-5.445-6.406-21.045-6.823-27.291 0-0.288 0.288-0.448 0.705-0.448 1.121l-0.961 15.887c0 0.545 0.128 1.121 0.416 1.538l4.452 7.367c0.416 0.705 1.249 1.121 2.082 1.121h16.592c0.833 0 1.666-0.416 2.082-1.249l4.036-7.399c0.288-0.416 0.416-0.961 0.416-1.377l-0.961-15.887c-0.16-0.416-0.288-0.833-0.416-1.121zM7.527 26.239c-1.249 0-2.242-0.961-2.242-2.242 0-1.249 0.993-2.21 2.242-2.21s2.21 0.961 2.21 2.21c0 1.281-0.961 2.242-2.21 2.242zM22.422 26.239c-1.249 0-2.242-0.961-2.242-2.242 0-1.249 0.993-2.21 2.242-2.21s2.242 0.961 2.242 2.21c0 1.281-0.993 2.242-2.242 2.242zM25.625 16.341c0 0.577-0.416 0.993-0.961 0.993h-19.219c-0.577 0-0.993-0.416-0.993-0.993v-7.367c0-0.545 0.577-1.121 1.121-1.121h18.93c0.577 0 1.121 0.577 1.121 1.121v7.367zM49.584 9.807c0-0.288-0.128-0.416-0.288-0.705-3.203-3.876-12.652-4.164-16.304 0-0.128 0.16-0.256 0.416-0.256 0.705l-0.577 9.481c0 0.256 0.16 0.673 0.288 0.961l2.659 4.452c0.256 0.416 0.673 0.705 1.249 0.705h9.898c0.545 0 0.961-0.288 1.249-0.705l2.498-4.452c0.128-0.288 0.288-0.545 0.288-0.833l-0.705-9.609zM36.644 22.075c-0.705 0-1.281-0.577-1.281-1.281s0.577-1.249 1.281-1.249c0.673 0 1.249 0.577 1.249 1.249s-0.416 1.281-1.249 1.281zM45.677 22.075c-0.705 0-1.249-0.577-1.249-1.281s0.545-1.249 1.249-1.249 1.249 0.577 1.249 1.249-0.545 1.281-1.249 1.281zM47.502 16.213c0 0.288-0.288 0.545-0.577 0.545h-11.563c-0.256 0-0.545-0.256-0.545-0.545v-4.58c0-0.448 0.288-0.705 0.705-0.705h11.403c0.416 0 0.705 0.256 0.705 0.705v4.58z"></path>
</svg>
