<?xml version="1.0" encoding="UTF-8"?>
<svg width="18px" height="23px" viewBox="0 0 18 23" version="1.1" xmlns="http://www.w3.org/2000/svg" xmlns:xlink="http://www.w3.org/1999/xlink">
    <!-- Generator: Sketch 45 (43475) - http://www.bohemiancoding.com/sketch -->
    <title>Train Copy</title>
    <desc>Created with Sketch.</desc>
    <defs>
        <polygon id="path-1" points="14.9802387 0.0347948718 0.380496774 0.0347948718 0.380496774 15.8882821 14.9802387 15.8882821 14.9802387 0.0347948718"></polygon>
        <polygon id="path-3" points="6.24774194 5.6002641 6.24774194 0.336212821 0.0135870968 0.336212821 0.0135870968 5.6002641 6.24774194 5.6002641"></polygon>
    </defs>
    <g id="Page-1" stroke="none" stroke-width="1" fill="none" fill-rule="evenodd">
        <g id="Desktop-Mixing-deck-page" transform="translate(-930.000000, -415.000000)">
            <g id="Train" transform="translate(929.857633, 415.290107)">
                <g id="Page-1">
                    <g id="Group-3" transform="translate(1.161290, 0.555185)">
                        <mask id="mask-2" fill="white">
                            <use xlink:href="#path-1"></use>
                        </mask>
                        <g id="Clip-2"></g>
                        <path d="M2.52656129,4.55576923 C2.52656129,4.25323077 2.76810968,4.00789744 3.06598065,4.00789744 L12.2947548,4.00789744 C12.5926258,4.00789744 12.8341742,4.25323077 12.8341742,4.55576923 L12.8341742,8.25228205 C12.8341742,8.51825641 12.6222387,8.73351282 12.3603677,8.73351282 L2.9997871,8.73351282 C2.73849677,8.73351282 2.52656129,8.51825641 2.52656129,8.25228205 L2.52656129,4.55576923 Z M11.3204323,13.1058718 C10.7322387,13.1058718 10.255529,12.6216923 10.255529,12.0242821 C10.255529,11.4268718 10.7322387,10.9421026 11.3204323,10.9421026 C11.9092065,10.9421026 12.3859161,11.4268718 12.3859161,12.0242821 C12.3859161,12.6216923 11.9092065,13.1058718 11.3204323,13.1058718 L11.3204323,13.1058718 Z M4.05714194,13.1058718 C3.46894839,13.1058718 2.99223871,12.6216923 2.99223871,12.0242821 C2.99223871,11.4268718 3.46894839,10.9421026 4.05714194,10.9421026 C4.64533548,10.9421026 5.12262581,11.4268718 5.12262581,12.0242821 C5.12262581,12.6216923 4.64533548,13.1058718 4.05714194,13.1058718 L4.05714194,13.1058718 Z M2.77914194,15.3250769 C2.98933548,15.6747949 3.36385161,15.8882821 3.7674,15.8882821 L11.8110774,15.8882821 C12.2314645,15.8882821 12.6193355,15.6565128 12.8237226,15.2826154 L14.8014,11.6639487 C14.9186903,11.4498718 14.9802387,11.2092564 14.9802387,10.9639231 L14.5238516,3.04661538 C14.5128194,2.85023077 14.449529,2.65679487 14.325271,2.50582051 C11.7007548,-0.685871795 4.08791613,-0.885794872 1.07727097,2.49107692 C0.931529032,2.6544359 0.846754839,2.86497436 0.833980645,3.08494872 L0.380496774,10.9320769 C0.380496774,11.1974615 0.452496774,11.4575385 0.588948387,11.684 L2.77914194,15.3250769 Z" id="Fill-1" fill="#535761" mask="url(#mask-2)"></path>
                    </g>
                    <polygon id="Fill-4" fill="#535761" points="4.35367742 17.3841077 0 22.965441 1.94341935 22.9477487 6.14322581 17.3841077"></polygon>
                    <g id="Group-8" transform="translate(11.612903, 17.068005)">
                        <mask id="mask-4" fill="white">
                            <use xlink:href="#path-3"></use>
                        </mask>
                        <g id="Clip-7"></g>
                        <polygon id="Fill-6" fill="#535761" mask="url(#mask-4)" points="1.8315871 0.336212821 0.0135870968 0.336212821 4.32313548 5.59731538 6.24797419 5.6002641"></polygon>
                    </g>
                    <polygon id="Fill-9" fill="#535761" points="12.0307935 19.0737821 11.0076968 17.8931154 6.7329871 17.8931154 5.85969677 19.0737821"></polygon>
                    <polygon id="Fill-11" fill="#535761" points="5.20002581 20.6477487 4.35750968 21.7753385 13.5131226 21.7753385 12.5556387 20.6477487"></polygon>
                </g>
            </g>
        </g>
    </g>
</svg>